<svg width="54" height="27" viewBox="0 0 54 27" fill="none" xmlns="http://www.w3.org/2000/svg">
<path d="M16.8723 0C16.222 0 15.7248 0.534446 15.7248 1.14524V19.7363C15.7248 20.3853 16.2603 20.8816 16.8723 20.8816C17.5225 20.8816 18.0198 20.3471 18.0198 19.7363V1.14524C18.0198 0.496271 17.4843 0 16.8723 0Z" fill="white"/>
<path d="M6.73424 7.44407C5.08945 7.44407 3.55942 8.01669 2.29715 9.08559V1.14524C2.29715 0.496271 1.76163 0 1.14962 0C0.537609 0 0.00209808 0.534446 0.00209808 1.14524V14.1628C0.00209808 15.957 0.690612 17.6367 1.99114 18.9347C3.25342 20.1944 4.9747 20.9198 6.77249 20.9198C8.57028 20.9198 10.2533 20.2326 11.5538 18.9347C12.8161 17.6749 13.5429 15.957 13.5429 14.1628C13.5429 12.3686 12.8544 10.6889 11.5538 9.39098C10.2533 8.13122 8.53202 7.44407 6.73424 7.44407ZM6.73424 18.5911C4.28619 18.5911 2.29715 16.606 2.29715 14.1628C2.29715 11.7196 4.28619 9.73456 6.73424 9.73456C9.18229 9.73456 11.1713 11.7196 11.1713 14.1628C11.1713 16.606 9.18229 18.5911 6.73424 18.5911Z" fill="white"/>
<path d="M45.214 9.39085C43.9517 8.13108 42.2304 7.40576 40.4326 7.40576C38.6349 7.40576 36.9518 8.09291 35.6513 9.39085C34.389 10.6506 33.6623 12.3685 33.6623 14.1627C33.6623 15.9569 34.3508 17.6366 35.6513 18.9345C36.9136 20.1943 38.6349 20.9196 40.4326 20.9196C41.3889 20.9196 42.3069 20.7287 43.1484 20.347C43.99 19.9652 44.7167 19.469 45.3287 18.82C45.7878 18.3619 45.7495 17.6366 45.2905 17.1785C44.8315 16.7204 44.1047 16.7586 43.6457 17.2167C42.8042 18.0947 41.6567 18.591 40.4326 18.591C37.9846 18.591 35.9956 16.6059 35.9956 14.1627C35.9956 11.7195 37.9846 9.73442 40.4326 9.73442C42.4599 9.73442 44.1812 11.1087 44.6785 12.9793H38.5201C37.8698 12.9793 37.3726 13.5137 37.3726 14.1245C37.3726 14.7735 37.9081 15.2698 38.5201 15.2698H46.0173C46.6675 15.2698 47.1648 14.7353 47.1648 14.1245C47.1648 12.3685 46.4763 10.6888 45.214 9.39085Z" fill="white"/>
<path d="M30.2972 7.44385C29.647 7.44385 29.1497 7.97829 29.1497 8.58909V15.2697C29.1497 17.1021 27.6579 18.5527 25.8602 18.5527C24.0241 18.5527 22.5706 17.0639 22.5706 15.2697V8.58909C22.5706 7.94012 22.0351 7.44385 21.4231 7.44385C20.7728 7.44385 20.2755 7.97829 20.2755 8.58909V15.2697C20.2755 18.3618 22.8001 20.8814 25.8984 20.8814C28.9967 20.8814 31.5213 18.3618 31.5213 15.2697V8.58909C31.483 7.94012 30.9475 7.44385 30.2972 7.44385Z" fill="white"/>
<path d="M50.7579 21.8354C50.6432 21.8354 50.5284 21.7973 50.4137 21.7209C50.1459 21.53 50.0694 21.1483 50.2607 20.8429C51.1022 19.5831 51.7142 18.1707 52.0585 16.6818C52.135 16.3383 52.4792 16.1474 52.7852 16.2237C53.1295 16.3001 53.3207 16.6437 53.2442 16.9491C52.9 18.5906 52.2115 20.1557 51.2552 21.53C51.1787 21.7209 50.9874 21.8354 50.7579 21.8354Z" fill="white"/>
<path d="M50.9092 7.93935C50.7179 7.93935 50.5267 7.82482 50.3737 7.67212C49.5321 6.37418 48.4611 5.30529 47.1988 4.42727C46.9311 4.2364 46.8546 3.85465 47.0458 3.54926C47.2371 3.28203 47.6196 3.20568 47.9256 3.39656C49.3026 4.35092 50.4884 5.57252 51.4064 6.98498C51.5977 7.2522 51.5212 7.67212 51.2152 7.82482C51.1387 7.90117 51.0239 7.93935 50.9092 7.93935Z" fill="white"/>
<path d="M52.939 14.8876C52.5948 14.8876 52.327 14.6204 52.327 14.2768C52.327 12.7499 52.0593 11.261 51.4855 9.8104C51.3708 9.505 51.5238 9.12325 51.8298 9.00873C52.1358 8.8942 52.5183 9.0469 52.633 9.3523C53.245 10.9175 53.5511 12.5972 53.5511 14.2768C53.5511 14.6204 53.2833 14.8876 52.939 14.8876Z" fill="white"/>
<path d="M48.6928 9.08539C48.5015 9.08539 48.3103 9.00904 48.1955 8.81817C47.5835 7.94015 46.8568 7.21483 46.0152 6.60403C45.7475 6.41316 45.671 6.03141 45.8622 5.72601C46.0535 5.45879 46.436 5.38244 46.742 5.57331C47.6983 6.26046 48.5398 7.13848 49.1901 8.09285C49.3813 8.36007 49.3048 8.74182 49.0371 8.97086C48.9223 9.04721 48.8076 9.08539 48.6928 9.08539Z" fill="white"/>
<path d="M50.4521 14.6193C50.1078 14.6193 49.8401 14.3521 49.8401 14.0085C49.8401 12.9778 49.6488 11.947 49.2663 10.9545C49.1516 10.6491 49.3046 10.2674 49.6488 10.1528C49.9548 10.0383 50.3374 10.191 50.4521 10.5346C50.8729 11.6416 51.0641 12.8251 51.1024 14.0085C51.1024 14.3521 50.8346 14.6193 50.4521 14.6193C50.4904 14.6193 50.4904 14.6193 50.4521 14.6193Z" fill="white"/>
<path d="M48.8841 20.2317C48.7693 20.2317 48.6546 20.1936 48.5398 20.1172C48.2338 19.9263 48.1573 19.5446 48.3486 19.2774C48.9223 18.3993 49.3431 17.445 49.5726 16.4143C49.6491 16.0707 49.9933 15.8798 50.3376 15.9562C50.6819 16.0325 50.8731 16.3761 50.7966 16.7197C50.5289 17.8649 50.0316 18.972 49.4196 19.9645C49.2666 20.1172 49.0753 20.2317 48.8841 20.2317Z" fill="white"/>
<path d="M45.3276 3.28258C45.2511 3.28258 45.1746 3.28258 45.0981 3.24441C43.6828 2.63361 42.191 2.32821 40.661 2.29004C40.3167 2.29004 40.049 1.98464 40.049 1.64107C40.049 1.2975 40.3167 1.03027 40.661 1.03027C42.344 1.06845 43.9888 1.41202 45.5571 2.06099C45.8631 2.17552 46.0161 2.55726 45.9013 2.86266C45.7866 3.12988 45.5571 3.28258 45.3276 3.28258Z" fill="white"/>
<path d="M44.1034 5.45827C44.0269 5.45827 43.9504 5.45827 43.8739 5.4201C42.8794 5.03835 41.8849 4.8093 40.8139 4.77113C40.4696 4.77113 40.2019 4.46573 40.2401 4.12216C40.2401 3.77858 40.5461 3.51136 40.8904 3.54954C42.0762 3.58771 43.2237 3.85493 44.333 4.27485C44.639 4.38938 44.792 4.77113 44.6772 5.07652C44.6007 5.30557 44.3712 5.45827 44.1034 5.45827Z" fill="white"/>
<path d="M33.6599 4.27457C33.4687 4.27457 33.2392 4.16004 33.1244 4.00734C32.9332 3.70195 33.0479 3.3202 33.3157 3.12933C34.7309 2.21313 36.2992 1.60234 37.9823 1.29694C38.3265 1.22059 38.6325 1.44964 38.709 1.79321C38.7855 2.13678 38.556 2.44218 38.2118 2.51853C36.72 2.82393 35.2665 3.35837 34.0042 4.19822C33.8894 4.23639 33.7747 4.27457 33.6599 4.27457Z" fill="white"/>
<path d="M35.2302 6.22116C35.039 6.22116 34.8095 6.10664 34.6947 5.91577C34.5035 5.61037 34.6182 5.22862 34.886 5.07592C35.9188 4.46513 36.9898 4.00703 38.1755 3.77798C38.5198 3.70163 38.8258 3.93068 38.9023 4.23608C38.9788 4.57965 38.7493 4.88505 38.4433 4.9614C37.4105 5.19045 36.4543 5.57219 35.5362 6.10664C35.4215 6.18299 35.3067 6.22116 35.2302 6.22116Z" fill="white"/>
<path d="M3.67417 23.8968C3.59767 23.8586 3.48292 23.8204 3.36817 23.8204C3.25342 23.8204 3.10041 23.8586 2.98566 23.9349C2.98566 24.0876 2.94741 24.2785 2.94741 24.4312C2.94741 24.5839 2.90916 24.7748 2.90916 24.9275C2.90916 25.0802 2.87091 25.271 2.83266 25.4237C2.79441 25.6146 2.79441 25.7673 2.75616 25.9582C2.7179 25.8437 2.7179 25.7291 2.67965 25.6528C2.6414 25.5383 2.6414 25.4619 2.60315 25.3474C2.5649 25.2329 2.5649 25.1565 2.52665 25.042C2.4884 24.9275 2.45015 24.8129 2.4119 24.6984C2.4119 24.6221 2.3354 24.5839 2.25889 24.5457C2.18239 24.5075 2.06764 24.4694 1.91464 24.4694C1.83814 24.4694 1.76163 24.4694 1.68513 24.5075C1.60863 24.5457 1.57038 24.5457 1.53213 24.5457C1.49388 24.6984 1.45563 24.8511 1.45563 24.9656C1.41738 25.0802 1.37913 25.1947 1.37913 25.3092C1.34088 25.4237 1.34088 25.5383 1.30263 25.6146C1.26437 25.7291 1.26437 25.8437 1.22612 25.9582H1.18787C1.18787 25.92 1.18787 25.8437 1.14962 25.7673C1.14962 25.691 1.11137 25.5764 1.11137 25.4619C1.07312 25.3092 1.07312 25.1565 1.03487 24.9275C0.996619 24.6984 0.958368 24.4694 0.920117 24.1258C0.920117 24.0113 0.843616 23.9349 0.767114 23.8586C0.690612 23.8204 0.57586 23.7822 0.461108 23.7822C0.384606 23.7822 0.269854 23.7822 0.193352 23.8204C0.11685 23.8586 0.0403489 23.8968 0.00209808 23.9349C0.00209808 24.0495 0.0403489 24.2021 0.0403489 24.3548C0.0785997 24.5075 0.0785997 24.6602 0.11685 24.8511C0.155101 25.0038 0.193352 25.1947 0.231603 25.3474C0.269854 25.5001 0.308104 25.6528 0.346355 25.8055C0.384606 25.9582 0.422857 26.0727 0.461108 26.1872C0.499358 26.3018 0.537609 26.3781 0.537609 26.4545C0.57586 26.5308 0.652362 26.569 0.767114 26.6072C0.881866 26.6453 0.996619 26.6835 1.14962 26.6835C1.26437 26.6835 1.37913 26.6835 1.45563 26.6453C1.53213 26.6072 1.60863 26.569 1.68513 26.5308C1.72338 26.3781 1.76163 26.2254 1.79989 26.0345C1.83814 25.8437 1.87639 25.6528 1.95289 25.4237C1.99114 25.6146 2.06764 25.8055 2.10589 25.9964C2.14414 26.1491 2.18239 26.3018 2.22064 26.4545C2.25889 26.5308 2.29715 26.569 2.4119 26.6072C2.52665 26.6453 2.6414 26.6835 2.79441 26.6835C2.90916 26.6835 3.02391 26.6835 3.13866 26.6453C3.25342 26.6072 3.32992 26.569 3.36817 26.5308C3.40642 26.4545 3.44467 26.3781 3.48292 26.2254C3.52117 26.1109 3.55942 25.9582 3.59767 25.8055C3.63592 25.6528 3.67417 25.5001 3.71242 25.3092C3.75068 25.1565 3.78893 24.9656 3.78893 24.8129C3.82718 24.6602 3.82718 24.5075 3.82718 24.393C3.82718 24.2785 3.86543 24.164 3.86543 24.0876C3.82718 24.0113 3.78893 23.9349 3.67417 23.8968Z" fill="white"/>
<path d="M6.50205 26.0345H5.31627V25.5383H6.19604C6.27254 25.5383 6.34904 25.5001 6.38729 25.4619C6.42554 25.4237 6.4638 25.3092 6.4638 25.1947C6.4638 25.1183 6.4638 25.0802 6.42554 25.0038C6.42554 24.9656 6.38729 24.8893 6.34904 24.8893H5.27802V24.4694H6.27254C6.34904 24.4694 6.42554 24.4312 6.4638 24.393C6.50205 24.3548 6.5403 24.2403 6.5403 24.1258C6.5403 24.0495 6.5403 24.0113 6.50205 23.9349C6.50205 23.8968 6.4638 23.8204 6.42554 23.7822H4.89551C4.74251 23.7822 4.66601 23.8204 4.58951 23.8968C4.51301 23.9731 4.47475 24.0876 4.47475 24.2021V26.1872C4.47475 26.3399 4.51301 26.4163 4.58951 26.4926C4.66601 26.569 4.78076 26.6072 4.89551 26.6072H6.27254C6.34904 26.6072 6.42554 26.569 6.4638 26.5308C6.50205 26.4926 6.5403 26.3781 6.5403 26.2636C6.5403 26.1872 6.5403 26.1491 6.50205 26.0727C6.5403 26.1109 6.5403 26.0727 6.50205 26.0345Z" fill="white"/>
<path d="M9.18189 25.1565C9.33489 25.1183 9.41139 25.042 9.52614 24.9275C9.60265 24.8129 9.6409 24.6984 9.6409 24.5839C9.6409 24.3167 9.52614 24.0876 9.33489 23.9731C9.10538 23.8204 8.79938 23.7822 8.41687 23.7822C8.26387 23.7822 8.07261 23.7822 7.91961 23.8204C7.76661 23.8204 7.6136 23.8586 7.5371 23.8968C7.4606 23.9349 7.42235 23.9349 7.3841 23.9731C7.34585 24.0113 7.34585 24.0495 7.34585 24.1258V26.3018C7.34585 26.4545 7.42235 26.569 7.6136 26.6453C7.69011 26.6835 7.72836 26.6835 7.80486 26.7217C7.88136 26.7217 7.95786 26.7599 8.03436 26.7599C8.11086 26.7599 8.18737 26.7599 8.26387 26.7599C8.34037 26.7599 8.41687 26.7599 8.45512 26.7599C8.87588 26.7599 9.22014 26.6835 9.44964 26.5308C9.67915 26.3781 9.7939 26.1491 9.7939 25.8437C9.7939 25.6528 9.75565 25.5383 9.6409 25.4237C9.48789 25.271 9.33489 25.1947 9.18189 25.1565ZM8.11086 24.393C8.14911 24.393 8.18737 24.393 8.26387 24.393C8.34037 24.393 8.37862 24.393 8.41687 24.393C8.56987 24.393 8.64638 24.4312 8.72288 24.4694C8.79938 24.5075 8.83763 24.5839 8.83763 24.6602C8.83763 24.7748 8.79938 24.8129 8.76113 24.8893C8.68463 24.9275 8.60812 24.9656 8.45512 24.9656H8.11086V24.393ZM8.79938 26.0345C8.72288 26.0727 8.60812 26.1109 8.49337 26.1109C8.41687 26.1109 8.37862 26.1109 8.30212 26.1109C8.22562 26.1109 8.18737 26.1109 8.14911 26.0727V25.5001H8.53162C8.68463 25.5001 8.76113 25.5383 8.83763 25.5764C8.91413 25.6146 8.95238 25.691 8.95238 25.8055C8.91413 25.92 8.87588 25.9964 8.79938 26.0345Z" fill="white"/>
<path d="M13.8113 24.1258C13.6583 24.0113 13.5053 23.8968 13.314 23.8586C13.1228 23.7822 12.8933 23.7822 12.6638 23.7822C12.549 23.7822 12.396 23.7822 12.243 23.8204C12.09 23.8204 11.937 23.8586 11.8223 23.8968C11.7458 23.9349 11.7075 23.9349 11.6693 23.9731C11.631 24.0113 11.631 24.0495 11.631 24.1258V26.3018C11.631 26.4545 11.7075 26.569 11.8988 26.6453C11.9753 26.6835 12.0135 26.6835 12.09 26.7217C12.1665 26.7217 12.243 26.7599 12.3195 26.7599C12.396 26.7599 12.4725 26.7599 12.549 26.7599C12.6255 26.7599 12.6638 26.7599 12.7403 26.7599C12.9698 26.7599 13.1993 26.7217 13.3905 26.6835C13.5818 26.6072 13.7348 26.5308 13.8878 26.4163C14.0408 26.3018 14.1173 26.1491 14.1938 25.9582C14.2703 25.7673 14.3086 25.5383 14.3086 25.3092C14.3086 25.042 14.2703 24.8129 14.1938 24.6602C14.0791 24.393 13.9643 24.2403 13.8113 24.1258ZM13.3523 25.6528C13.314 25.7673 13.2758 25.8437 13.1993 25.92C13.1228 25.9964 13.0463 26.0345 12.9698 26.0727C12.8933 26.1109 12.7785 26.1109 12.6638 26.1109C12.6255 26.1109 12.5873 26.1109 12.5108 26.1109C12.4725 26.1109 12.4343 26.1109 12.396 26.1109V24.4694C12.4343 24.4694 12.4725 24.4694 12.549 24.4694C12.5873 24.4694 12.6255 24.4694 12.6638 24.4694C12.8933 24.4694 13.0463 24.5457 13.1993 24.6984C13.314 24.8511 13.3905 25.042 13.3905 25.3474C13.4288 25.4237 13.3905 25.5383 13.3523 25.6528Z" fill="white"/>
<path d="M16.9864 26.0345H15.8006V25.5383H16.6804C16.7569 25.5383 16.8334 25.5001 16.8717 25.4619C16.9099 25.4237 16.9482 25.3092 16.9482 25.1947C16.9482 25.1183 16.9482 25.0802 16.9099 25.0038C16.9099 24.9656 16.8717 24.8893 16.8334 24.8893H15.7624V24.4694H16.7569C16.8334 24.4694 16.9099 24.4312 16.9482 24.393C16.9864 24.3548 17.0247 24.2403 17.0247 24.1258C17.0247 24.0495 17.0247 24.0113 16.9864 23.9349C16.9864 23.8968 16.9482 23.8204 16.9099 23.7822H15.3799C15.2269 23.7822 15.1504 23.8204 15.0739 23.8968C14.9974 23.9731 14.9591 24.0876 14.9591 24.2021V26.1872C14.9591 26.3399 14.9974 26.4163 15.0739 26.4926C15.1504 26.569 15.2651 26.6072 15.3799 26.6072H16.7569C16.8334 26.6072 16.9099 26.569 16.9482 26.5308C16.9864 26.4926 17.0247 26.3781 17.0247 26.2636C17.0247 26.1872 17.0247 26.1491 16.9864 26.0727C17.0247 26.1109 16.9864 26.0727 16.9864 26.0345Z" fill="white"/>
<path d="M19.7013 25.2711C19.5483 25.1184 19.3188 25.0039 19.0128 24.9276L18.7832 24.8512C18.7067 24.813 18.6302 24.813 18.592 24.7749C18.5537 24.7367 18.5155 24.6985 18.5155 24.6603C18.5155 24.584 18.5537 24.5458 18.6302 24.5076C18.7067 24.4695 18.7832 24.4313 18.9362 24.4313C19.0893 24.4313 19.204 24.4313 19.3188 24.4695C19.4335 24.5076 19.51 24.5458 19.5865 24.584C19.6248 24.5458 19.7013 24.5076 19.7395 24.4313C19.7778 24.3931 19.7778 24.3168 19.7778 24.2404C19.7778 24.1641 19.7395 24.0877 19.7013 24.0114C19.663 23.935 19.5865 23.8968 19.51 23.8587C19.4335 23.8205 19.3188 23.7823 19.204 23.7823C19.0893 23.7823 18.9745 23.7441 18.8215 23.7441C18.439 23.7441 18.1712 23.8205 17.98 23.9732C17.7887 24.1259 17.674 24.3549 17.674 24.6222C17.674 24.7749 17.7122 24.8894 17.7505 24.9657C17.7887 25.0421 17.8652 25.1566 17.9417 25.1948C18.0182 25.2711 18.133 25.3093 18.2477 25.3857C18.3625 25.4238 18.4772 25.5002 18.6302 25.5384L18.8215 25.6147C18.898 25.6529 18.9745 25.6911 19.051 25.7292C19.0893 25.7674 19.1275 25.8056 19.1275 25.8819C19.1275 25.9583 19.0893 25.9964 19.051 26.0346C18.9745 26.0728 18.898 26.111 18.745 26.111C18.592 26.111 18.439 26.0728 18.3242 26.0346C18.2095 25.9964 18.0947 25.9201 18.0182 25.8438C17.9417 25.8819 17.9035 25.9201 17.827 25.9965C17.7887 26.0728 17.7505 26.1491 17.7505 26.2255C17.7505 26.3018 17.7887 26.3782 17.827 26.4545C17.8652 26.5309 17.9417 26.5691 18.0565 26.6072C18.133 26.6454 18.2477 26.6836 18.3625 26.7218C18.4772 26.7599 18.6302 26.7599 18.745 26.7599C19.1658 26.7599 19.4718 26.6836 19.663 26.5309C19.8543 26.3782 19.969 26.1491 19.969 25.8819C19.9308 25.6147 19.8543 25.4238 19.7013 25.2711Z" fill="white"/>
<path d="M21.307 23.8586C21.2687 23.8204 21.2305 23.8204 21.154 23.7822C21.1157 23.7822 21.0392 23.7822 20.9627 23.7822C20.8862 23.7822 20.8097 23.7822 20.7332 23.7822C20.6567 23.7822 20.6185 23.8204 20.5802 23.8204V26.3018C20.5802 26.3781 20.5802 26.4545 20.6185 26.4926C20.6185 26.5308 20.6567 26.569 20.695 26.6072C20.7332 26.6453 20.7715 26.6453 20.848 26.6835C20.8862 26.6835 20.9627 26.6835 21.0392 26.6835C21.1157 26.6835 21.1922 26.6835 21.2687 26.6835C21.3452 26.6835 21.3835 26.6835 21.4217 26.6453V24.164C21.4217 24.0876 21.4217 24.0113 21.3835 23.9731C21.3835 23.9349 21.3452 23.8968 21.307 23.8586Z" fill="white"/>
<path d="M24.5595 24.9657H23.7563C23.6798 24.9657 23.6033 25.0039 23.565 25.0421C23.5268 25.0803 23.4885 25.1566 23.4885 25.2711C23.4885 25.3475 23.4885 25.3857 23.5268 25.462C23.5268 25.5002 23.565 25.5765 23.565 25.6147H24.0623V26.0728C24.024 26.0728 23.9858 26.111 23.9475 26.111C23.9093 26.111 23.8328 26.111 23.7563 26.111C23.6415 26.111 23.565 26.111 23.4503 26.0728C23.3737 26.0346 23.259 25.9964 23.2207 25.9201C23.1442 25.8437 23.106 25.7674 23.0677 25.6529C23.0295 25.5384 22.9912 25.4238 22.9912 25.2711C22.9912 25.0039 23.0677 24.813 23.2207 24.6603C23.3737 24.5076 23.565 24.4313 23.8328 24.4313C23.9858 24.4313 24.1005 24.4695 24.2153 24.5076C24.33 24.5458 24.4448 24.584 24.5213 24.6603C24.5595 24.6222 24.636 24.584 24.6743 24.5076C24.7125 24.4313 24.7508 24.3931 24.7508 24.2786C24.7508 24.1259 24.6743 24.0114 24.483 23.8968C24.2918 23.8205 24.0623 23.7441 23.7945 23.7441C23.6033 23.7441 23.3738 23.7823 23.1825 23.8205C22.9912 23.8968 22.8 23.9732 22.647 24.0877C22.494 24.2022 22.3792 24.3549 22.2645 24.5458C22.188 24.7367 22.1115 24.9657 22.1115 25.233C22.1115 25.462 22.1497 25.6911 22.2262 25.8819C22.3027 26.0728 22.4175 26.2255 22.5705 26.34C22.7235 26.4545 22.8765 26.5691 23.0677 26.6072C23.259 26.6836 23.4885 26.6836 23.718 26.6836C23.7945 26.6836 23.871 26.6836 23.9858 26.6836C24.0623 26.6836 24.1388 26.6454 24.2153 26.6454C24.2918 26.6454 24.3683 26.6072 24.4448 26.5691C24.5213 26.5309 24.5595 26.5309 24.5978 26.4927C24.6743 26.4545 24.7125 26.4164 24.7508 26.34C24.789 26.3018 24.789 26.2255 24.789 26.111V25.1566C24.789 25.0803 24.7508 25.0039 24.7125 24.9276C24.7125 24.9657 24.636 24.9657 24.5595 24.9657Z" fill="white"/>
<path d="M28.0791 23.8586C28.0026 23.8204 27.8878 23.7822 27.773 23.7822C27.6965 23.7822 27.62 23.7822 27.5818 23.7822C27.5053 23.7822 27.467 23.7822 27.4288 23.8204V24.5839C27.4288 24.7366 27.4288 24.9275 27.4288 25.0802C27.4288 25.2329 27.4288 25.4237 27.467 25.5764H27.4288C27.3905 25.4619 27.3523 25.3474 27.314 25.271C27.2758 25.1947 27.2375 25.0802 27.1993 25.0038L26.7403 24.0494C26.6638 23.9349 26.5873 23.8586 26.4725 23.8204C26.3578 23.7822 26.243 23.7822 26.1283 23.7822C26.0135 23.7822 25.937 23.7822 25.8223 23.8204C25.7458 23.8586 25.6693 23.8968 25.631 23.9731V26.3018C25.631 26.3781 25.631 26.4545 25.6693 26.4926C25.6693 26.5308 25.7075 26.569 25.7458 26.6072C25.784 26.6453 25.8223 26.6453 25.8605 26.6453C25.8988 26.6453 25.9753 26.6453 26.0518 26.6453C26.1283 26.6453 26.2048 26.6453 26.243 26.6453C26.3195 26.6453 26.3578 26.6453 26.396 26.6072V25.8818C26.396 25.7291 26.396 25.5383 26.396 25.3856C26.396 25.1947 26.396 25.042 26.3578 24.8893H26.396C26.4343 25.0038 26.4725 25.1183 26.5108 25.1947C26.549 25.271 26.5873 25.3856 26.6255 25.4619L27.0845 26.4163C27.161 26.5308 27.2375 26.6453 27.3523 26.6453C27.467 26.6835 27.5818 26.6835 27.6965 26.6835C27.8113 26.6835 27.9261 26.6835 28.0026 26.6453C28.0791 26.6072 28.1556 26.6072 28.1938 26.5308V24.1258C28.1938 24.0113 28.1556 23.8968 28.0791 23.8586Z" fill="white"/>
<path d="M32.7827 25.2711C32.7827 25.1948 32.7827 25.1566 32.7827 25.0803C32.7827 25.0421 32.7444 24.9657 32.7444 24.9276C32.7062 24.8894 32.6679 24.8512 32.6297 24.8512C32.5914 24.813 32.5149 24.813 32.4384 24.813C32.4002 24.813 32.3237 24.813 32.2854 24.813C32.2472 24.813 32.1707 24.8512 32.1324 24.8512C32.1324 24.9657 32.1324 25.0803 32.1324 25.1566C32.1324 25.233 32.0942 25.3475 32.0942 25.3857L31.4822 24.813C31.4057 24.7367 31.3674 24.6985 31.3292 24.6603C31.2527 24.6603 31.2527 24.6222 31.2527 24.584C31.2527 24.5076 31.2909 24.4695 31.3292 24.4313C31.3674 24.3931 31.4439 24.3931 31.5204 24.3931C31.5587 24.3931 31.6352 24.3931 31.6734 24.3931C31.7117 24.3931 31.7499 24.4313 31.7882 24.4313C31.8264 24.3931 31.8647 24.3549 31.8647 24.2786C31.9029 24.2404 31.9029 24.1641 31.9029 24.1259C31.9029 24.0114 31.8647 23.935 31.7882 23.8587C31.7117 23.7823 31.5587 23.7441 31.3674 23.7441C31.2144 23.7441 31.0997 23.7441 30.9849 23.7823C30.8701 23.8205 30.7936 23.8587 30.7171 23.935C30.6406 24.0114 30.6024 24.0877 30.5259 24.1641C30.4876 24.2404 30.4494 24.3549 30.4494 24.4313C30.4494 24.5076 30.4494 24.584 30.4876 24.6603C30.5259 24.7367 30.5641 24.813 30.6024 24.8894C30.5259 24.9276 30.4494 24.9657 30.3729 25.0039C30.2964 25.0421 30.2581 25.1184 30.1816 25.1948C30.1434 25.2711 30.0669 25.3475 30.0286 25.4238C29.9904 25.5002 29.9904 25.6147 29.9904 25.7292C29.9904 25.8819 30.0286 25.9964 30.0669 26.111C30.1051 26.2255 30.1816 26.34 30.2964 26.4164C30.4111 26.4927 30.5259 26.5691 30.6406 26.6072C30.7936 26.6454 30.9466 26.6836 31.1379 26.6836C31.3292 26.6836 31.4822 26.6454 31.6352 26.6072C31.7882 26.5691 31.9029 26.4927 32.0177 26.4164L32.0942 26.4927C32.2089 26.6072 32.3237 26.6836 32.4767 26.6836C32.5914 26.6836 32.6679 26.6454 32.7444 26.5691C32.8209 26.4927 32.8592 26.4164 32.8592 26.2637L32.5149 25.9201C32.7062 25.7674 32.7827 25.5002 32.7827 25.2711ZM31.4439 26.111C31.3674 26.111 31.2909 26.1491 31.2527 26.1491C31.0997 26.1491 30.9849 26.111 30.9084 26.0346C30.8319 25.9583 30.7936 25.8819 30.7936 25.7674C30.7936 25.6911 30.8319 25.6529 30.8701 25.5765C30.9084 25.5002 30.9849 25.462 31.0232 25.4238L31.6352 26.0346C31.5969 26.0728 31.5204 26.0728 31.4439 26.111Z" fill="white"/>
<path d="M37.9464 25.8431C37.9464 25.6904 37.9082 25.4995 37.9082 25.3086C37.9082 25.1178 37.8699 24.9651 37.8699 24.8124C37.8699 24.6597 37.8317 24.507 37.8317 24.3924C37.8317 24.2779 37.7934 24.1634 37.7934 24.087C37.7934 24.0107 37.7169 23.9343 37.6404 23.8962C37.5257 23.858 37.4109 23.8198 37.2579 23.8198C37.1814 23.8198 37.0667 23.8198 37.0284 23.858C36.9519 23.858 36.9137 23.8962 36.8372 23.9343C36.7607 24.087 36.7224 24.3161 36.6459 24.5451C36.5694 24.7742 36.4929 25.0414 36.4164 25.3086H36.3782C36.3399 25.2323 36.3399 25.1178 36.3017 25.0414C36.2634 24.9269 36.2252 24.8505 36.1869 24.736C36.1487 24.6215 36.1104 24.5451 36.0722 24.4306C36.0339 24.3161 35.9957 24.2397 35.9957 24.1634C35.9574 24.0489 35.8809 23.9725 35.8044 23.8962C35.7279 23.858 35.5749 23.8198 35.4219 23.8198C35.2689 23.8198 35.1541 23.858 35.0776 23.8962C35.0011 23.9343 34.9246 23.9725 34.9246 24.0107L34.7716 26.3775C34.7716 26.4921 34.8099 26.5684 34.8864 26.6066C34.9629 26.6448 35.0776 26.6829 35.1924 26.6829C35.2689 26.6829 35.3071 26.6829 35.3836 26.6829C35.4601 26.6829 35.4984 26.6448 35.5366 26.6448C35.5366 26.4539 35.5366 26.3012 35.5749 26.1485C35.5749 25.9958 35.5749 25.8431 35.5749 25.7286C35.5749 25.5759 35.5749 25.4232 35.5749 25.2705C35.5749 25.1178 35.5749 24.9651 35.6131 24.7742H35.6514C35.6896 24.8887 35.7279 25.0414 35.7662 25.2323C35.8044 25.385 35.8809 25.614 35.9957 25.8813C36.0339 25.9576 36.0722 25.9958 36.1487 26.034C36.2252 26.0721 36.3017 26.0721 36.4164 26.0721C36.4929 26.0721 36.5694 26.0721 36.6459 26.034C36.7224 25.9958 36.7607 25.9958 36.7989 25.9576C36.8754 25.6522 36.9519 25.4232 37.0284 25.2323C37.1049 25.0414 37.1432 24.8887 37.1814 24.7742H37.2197C37.2197 24.9651 37.2197 25.1941 37.2579 25.4613C37.2579 25.7286 37.2579 26.034 37.2962 26.3775C37.2962 26.4921 37.3344 26.5684 37.4109 26.6066C37.4874 26.6448 37.6022 26.6829 37.7169 26.6829C37.7934 26.6829 37.8699 26.6829 37.9464 26.6448C38.0229 26.6448 38.0612 26.6066 38.0994 26.5684C38.0994 26.4921 38.0994 26.3775 38.0994 26.263C37.9464 26.1485 37.9464 25.9958 37.9464 25.8431Z" fill="white"/>
<path d="M41.1212 24.1255C40.9682 24.011 40.8152 23.8964 40.6622 23.8201C40.4709 23.7437 40.2797 23.7056 40.0884 23.7056C39.8972 23.7056 39.6677 23.7437 39.5147 23.8201C39.3234 23.8964 39.1704 23.9728 39.0557 24.1255C38.9409 24.24 38.8262 24.3927 38.7497 24.5836C38.6732 24.7745 38.6349 25.0035 38.6349 25.2326C38.6349 25.4616 38.6732 25.6907 38.7497 25.8815C38.8262 26.0724 38.9409 26.2251 39.0557 26.3396C39.1704 26.4541 39.3617 26.5687 39.5147 26.645C39.7059 26.7214 39.8972 26.7595 40.0884 26.7595C40.3179 26.7595 40.5092 26.7214 40.6622 26.645C40.8535 26.5687 41.0065 26.4923 41.1212 26.3396C41.236 26.2251 41.3507 26.0724 41.4272 25.8815C41.5037 25.6907 41.542 25.4616 41.542 25.2326C41.542 25.0035 41.5037 24.7745 41.4272 24.5836C41.3507 24.3927 41.236 24.24 41.1212 24.1255ZM40.5474 25.8815C40.4327 26.0342 40.2797 26.1106 40.0884 26.1106C39.8972 26.1106 39.7442 26.0342 39.6294 25.8815C39.5147 25.7288 39.4382 25.538 39.4382 25.2326C39.4382 24.9653 39.5147 24.7363 39.6294 24.5836C39.7442 24.4309 39.8972 24.3927 40.0884 24.3927C40.2797 24.3927 40.4327 24.4691 40.5474 24.6218C40.6622 24.7745 40.7005 24.9653 40.7005 25.2707C40.7005 25.538 40.6622 25.7288 40.5474 25.8815Z" fill="white"/>
<path d="M44.0647 25.5764C44.2177 25.5001 44.3325 25.3856 44.409 25.271C44.5237 25.1183 44.562 24.9656 44.562 24.7748C44.562 24.4694 44.4472 24.2021 44.2177 24.0494C43.9882 23.8586 43.6822 23.7822 43.2614 23.7822C43.1084 23.7822 42.9554 23.7822 42.8024 23.8204C42.6494 23.8204 42.5347 23.8586 42.4199 23.8968C42.3434 23.9349 42.3052 23.9349 42.2669 23.9731C42.2287 24.0113 42.2287 24.0495 42.2287 24.1258V26.3399C42.2287 26.4163 42.2287 26.4926 42.2669 26.5308C42.2669 26.569 42.3052 26.6072 42.3434 26.6453C42.3817 26.6835 42.4199 26.6835 42.4964 26.7217C42.5347 26.7217 42.6112 26.7217 42.6877 26.7217C42.7642 26.7217 42.8407 26.7217 42.9172 26.7217C42.9937 26.7217 43.0319 26.7217 43.0702 26.6835V25.7673H43.2997L43.6822 26.4163C43.7204 26.4545 43.7587 26.4926 43.7587 26.5308C43.7969 26.569 43.8352 26.6072 43.8734 26.6453C43.9117 26.6835 43.9499 26.6835 43.9882 26.7217C44.0265 26.7217 44.103 26.7599 44.1795 26.7599C44.2942 26.7599 44.3707 26.7217 44.4472 26.6835C44.5237 26.6072 44.6002 26.5308 44.6002 26.4163C44.5237 26.3018 44.4472 26.1872 44.3325 26.0345C44.2942 25.8818 44.1795 25.7291 44.0647 25.5764ZM43.6439 25.042C43.5674 25.1183 43.4909 25.1183 43.3762 25.1183H43.0702V24.4312C43.1084 24.4312 43.1467 24.4312 43.1467 24.4312C43.1849 24.4312 43.2232 24.4312 43.2614 24.4312C43.4144 24.4312 43.5292 24.4694 43.6057 24.5075C43.6822 24.5839 43.7204 24.6602 43.7204 24.7748C43.7587 24.8893 43.7204 24.9656 43.6439 25.042Z" fill="white"/>
<path d="M47.3536 26.0345H46.1678V25.5383H47.0476C47.1241 25.5383 47.2006 25.5001 47.2389 25.4619C47.2771 25.4237 47.3154 25.3092 47.3154 25.1947C47.3154 25.1183 47.3154 25.0802 47.2771 25.0038C47.2771 24.9656 47.2389 24.8893 47.2006 24.8893H46.1296V24.4694H47.1241C47.2006 24.4694 47.2771 24.4312 47.3154 24.393C47.3536 24.3548 47.3919 24.2403 47.3919 24.1258C47.3919 24.0495 47.3919 24.0113 47.3536 23.9349C47.3536 23.8968 47.3154 23.8204 47.2771 23.7822H45.7471C45.5941 23.7822 45.5176 23.8204 45.4411 23.8968C45.3646 23.9731 45.3263 24.0876 45.3263 24.2021V26.1872C45.3263 26.3399 45.3646 26.4163 45.4411 26.4926C45.5176 26.569 45.6323 26.6072 45.7471 26.6072H47.1241C47.2006 26.6072 47.2771 26.569 47.3154 26.5308C47.3536 26.4926 47.3919 26.3781 47.3919 26.2636C47.3919 26.1872 47.3919 26.1491 47.3536 26.0727C47.3919 26.1109 47.3536 26.0727 47.3536 26.0345Z" fill="white"/>
<path d="M49.5744 25.8433C49.4214 25.8433 49.3066 25.8814 49.2301 25.9578C49.1536 26.0341 49.1154 26.1487 49.1154 26.3014C49.1154 26.4159 49.1536 26.5304 49.2301 26.6449C49.3066 26.7213 49.4214 26.7595 49.5744 26.7595C49.7274 26.7595 49.8421 26.7213 49.9186 26.6449C49.9951 26.5686 50.0334 26.4541 50.0334 26.3014C50.0334 26.1868 49.9951 26.0723 49.9186 25.9578C49.8039 25.8814 49.7274 25.8433 49.5744 25.8433Z" fill="white"/>
<path d="M51.2585 25.9578C51.182 25.8814 51.0672 25.8433 50.9142 25.8433C50.7612 25.8433 50.6465 25.8814 50.57 25.9578C50.4935 26.0341 50.4552 26.1487 50.4552 26.3014C50.4552 26.4159 50.4935 26.5304 50.57 26.6449C50.6465 26.7213 50.7612 26.7595 50.9142 26.7595C51.0672 26.7595 51.182 26.7213 51.2585 26.6449C51.335 26.5686 51.3732 26.4541 51.3732 26.3014C51.3732 26.1487 51.335 26.0341 51.2585 25.9578Z" fill="white"/>
</svg>
