<svg width="92" height="76" viewBox="0 0 92 76" fill="none" xmlns="http://www.w3.org/2000/svg">
<rect x="79.8594" y="31.1861" width="10.5077" height="6.75495" rx="2" transform="rotate(-3.54874 79.8594 31.1861)" fill="black"/>
<rect x="10.2578" y="40.0301" width="13.9887" height="6.75495" rx="2" transform="rotate(-0.692426 10.2578 40.0301)" fill="black"/>
<rect x="10.2578" y="50.3688" width="13.9887" height="6.75495" rx="2" transform="rotate(-0.692426 10.2578 50.3688)" fill="black"/>
<rect x="8.75586" y="60.295" width="13.9887" height="6.75495" rx="2" transform="rotate(-0.692426 8.75586 60.295)" fill="black"/>
<rect x="46.5391" y="39.8611" width="13.9887" height="6.75495" rx="2" transform="rotate(2.16389 46.5391 39.8611)" fill="black"/>
<rect x="27.5195" y="50.3688" width="13.9887" height="6.75495" rx="2" transform="rotate(2.16389 27.5195 50.3688)" fill="black"/>
<rect x="26.0195" y="60.295" width="13.9887" height="6.75495" rx="2" transform="rotate(2.16389 26.0195 60.295)" fill="black"/>
<rect x="64.1367" y="41.3622" width="13.9887" height="6.75495" rx="2" transform="rotate(5.0202 64.1367 41.3622)" fill="black"/>
<rect x="62.0449" y="51.8699" width="13.9887" height="6.75495" rx="2" transform="rotate(5.0202 62.0449 51.8699)" fill="black"/>
<rect x="60.5449" y="61.7961" width="13.9887" height="6.75495" rx="2" transform="rotate(5.0202 60.5449 61.7961)" fill="black"/>
<rect x="44.7832" y="51.1193" width="13.9887" height="6.75495" rx="2" transform="rotate(5.0202 44.7832 51.1193)" fill="black"/>
<rect x="43.2812" y="61.0455" width="13.9887" height="6.75495" rx="2" transform="rotate(5.0202 43.2812 61.0455)" fill="black"/>
<rect x="79.9082" y="42.5344" width="10.7949" height="6.75495" rx="2" transform="rotate(3.0911 79.9082 42.5344)" fill="black"/>
<rect x="79.3086" y="53.371" width="10.7949" height="6.75495" rx="2" transform="rotate(3.0911 79.3086 53.371)" fill="black"/>
<rect x="77.8066" y="63.2972" width="10.7949" height="6.75495" rx="2" transform="rotate(3.0911 77.8066 63.2972)" fill="black"/>
<path d="M68.8001 15.1495L62.7957 12.8978L60.1687 11.772L58.2924 10.6462L57.1665 8.7698L53.0385 7.2687L50.7869 6.51815L51.5374 8.39452H49.661L41.0297 9.52035L24.8929 14.3989L10.2572 19.6528L9.18089 20.46L9.57745 21.914C9.77529 22.6394 10.1982 23.2833 10.7853 23.753C11.4151 24.2569 12.1977 24.5314 13.0042 24.5314H15.511H18.336C19.4397 24.5314 20.5282 24.7883 21.5154 25.2819C22.5026 25.7755 23.5911 26.0325 24.6948 26.0325H26.3318C26.6228 26.0325 26.9132 26.0594 27.1992 26.1131L31.6671 26.9508C32.2421 27.0586 32.7737 26.6175 32.7737 26.0325V24.5314V24.1352C32.7737 21.9278 33.2876 19.7507 34.2748 17.7764L34.8649 17.4813C35.9108 16.9584 37.142 16.9584 38.1879 17.4813L39.0689 17.9218C39.7115 18.2431 39.9271 19.055 39.5286 19.6528L38.9083 21.5136C38.6046 22.4249 38.9011 23.4289 39.6511 24.0289C40.0577 24.3542 40.5628 24.5314 41.0834 24.5314H41.1187C41.7802 24.5314 42.4122 24.2575 42.8647 23.7749L46.8818 19.49C47.4827 18.8491 48.0296 18.1596 48.5169 17.4286L49.2858 16.2753L51.5374 12.8978L53.7891 9.52035L51.1621 7.2687L56.416 8.7698L55.2902 9.52035L57.1665 9.14507L56.7541 10.0387C55.5349 12.6803 53.9251 15.1234 51.9788 17.2859L51.5374 17.7764L48.9105 20.7786L47.0308 23.4639C46.5375 24.1686 45.91 24.7691 45.1842 25.2309C43.2979 26.4313 42.1555 28.5124 42.1555 30.7484V32.0369V36.1649V38.7918C42.1555 39.5424 42.1555 39.9176 42.9061 41.794C43.3794 42.9772 43.421 45.1625 43.579 46.427L43.6265 46.8065C43.6465 46.967 43.6824 47.1251 43.7335 47.2786L44.4072 49.2995L45.3464 51.6476C45.719 52.5791 45.9544 53.5598 46.0452 54.5589L46.1536 55.751C46.2389 56.689 46.5572 57.5908 47.0797 58.3744L47.2026 58.5588C47.5858 59.1337 48.092 59.6163 48.6845 59.9718C49.3261 60.3568 49.8657 60.8904 50.2579 61.5277L52.2996 64.8454C52.5373 65.2318 52.6632 65.6765 52.6632 66.1302C52.6632 66.416 52.7132 66.6995 52.8108 66.9681L53.1877 68.0044C53.8221 69.7492 54.9975 71.2456 56.5422 72.2754L57.5418 72.9418L54.7198 73.1182C52.6046 73.2504 50.4813 73.1503 48.3879 72.8198L44.4072 72.1913L47.2827 71.5751C48.5696 71.2993 49.3544 69.9922 48.9928 68.7268C48.9382 68.5354 48.8586 68.3521 48.7563 68.1815L40.6682 54.7014C39.1935 52.2436 35.7344 51.9762 33.8995 54.1781L32.1759 55.7786C29.9061 57.8862 31.5319 60.7895 30.1467 63.56C29.9765 63.9004 28.2699 66.5093 26.6415 69.0466C25.7053 70.5055 26.6507 72.1527 28.1577 72.2806L29.0209 72.1913C28.7201 72.2772 28.4298 72.3037 28.1577 72.2806L21.1474 73.0058C19.1476 73.2127 17.1307 73.1912 15.1357 72.9418L19.6111 71.1517C20.3498 70.8562 20.9409 70.2793 21.2544 69.548L23.0165 65.4363L25.9989 57.9804C26.5114 56.6991 26.9054 55.3736 27.1761 54.0204L27.2057 53.8722C27.6623 51.5892 28.484 49.3948 29.6391 47.3734L30.1079 46.553C30.6323 45.6351 31.048 44.6592 31.3462 43.645L31.9648 41.5418C32.4866 39.7679 32.3526 37.8656 31.5875 36.1823L31.2641 35.4707C31.0224 34.9389 30.8973 34.3615 30.8973 33.7774C30.8973 32.0565 29.8207 30.5196 28.2035 29.9315L26.7693 29.4099L24.9999 28.8791C23.6793 28.4829 22.3322 28.1814 20.9687 27.9769L17.65 27.4791C16.226 27.2655 14.788 27.1583 13.3481 27.1583H11.7583L9.24613 26.965C8.2037 26.8848 7.15758 26.9443 6.13523 27.14L5.37858 29.4099L4.25275 69.9396L5.37858 72.1913L18.1379 73.6924L29.7715 72.1913L32.7737 73.6924L41.0297 72.1913L51.5374 73.6924L60.1687 72.9418L63.9215 72.1913H72.5528H73.6786L80.0583 72.9418H84.9369H88.3144L90.566 74.8182H0.5V34.6638L1.62583 26.0325L3.12693 20.7786L4.25275 17.7764L6.5044 14.3989L11.7583 11.3967L18.1379 9.52035L27.8951 6.14287L39.5286 2.01485L47.7847 0.513748L52.6632 2.01485L62.7957 6.14287L73.3034 11.3967L83.0605 17.7764L90.566 24.5314L84.5616 21.9044L78.5572 18.9022L72.5528 16.6506L68.8001 15.1495Z" fill="black" stroke="black"/>
</svg>
