<svg width="399" height="76" viewBox="0 0 399 76" fill="none" xmlns="http://www.w3.org/2000/svg">
<rect x="79.8594" y="31.1861" width="10.5077" height="6.75495" rx="2" transform="rotate(-3.54874 79.8594 31.1861)" fill="white"/>
<rect x="10.2578" y="40.0301" width="13.9887" height="6.75495" rx="2" transform="rotate(-0.692426 10.2578 40.0301)" fill="white"/>
<rect x="10.2578" y="50.3687" width="13.9887" height="6.75495" rx="2" transform="rotate(-0.692426 10.2578 50.3687)" fill="white"/>
<rect x="8.75586" y="60.2949" width="13.9887" height="6.75495" rx="2" transform="rotate(-0.692426 8.75586 60.2949)" fill="white"/>
<rect x="46.5391" y="39.8611" width="13.9887" height="6.75495" rx="2" transform="rotate(2.16389 46.5391 39.8611)" fill="white"/>
<rect x="27.5195" y="50.3687" width="13.9887" height="6.75495" rx="2" transform="rotate(2.16389 27.5195 50.3687)" fill="white"/>
<rect x="26.0176" y="60.2949" width="13.9887" height="6.75495" rx="2" transform="rotate(2.16389 26.0176 60.2949)" fill="white"/>
<rect x="64.1367" y="41.3622" width="13.9887" height="6.75495" rx="2" transform="rotate(5.0202 64.1367 41.3622)" fill="white"/>
<rect x="62.0449" y="51.8698" width="13.9887" height="6.75495" rx="2" transform="rotate(5.0202 62.0449 51.8698)" fill="white"/>
<rect x="60.543" y="61.796" width="13.9887" height="6.75495" rx="2" transform="rotate(5.0202 60.543 61.796)" fill="white"/>
<rect x="44.7812" y="51.1193" width="13.9887" height="6.75495" rx="2" transform="rotate(5.0202 44.7812 51.1193)" fill="white"/>
<rect x="43.2812" y="61.0455" width="13.9887" height="6.75495" rx="2" transform="rotate(5.0202 43.2812 61.0455)" fill="white"/>
<rect x="79.9082" y="42.5344" width="10.7949" height="6.75495" rx="2" transform="rotate(3.0911 79.9082 42.5344)" fill="white"/>
<rect x="79.3066" y="53.3709" width="10.7949" height="6.75495" rx="2" transform="rotate(3.0911 79.3066 53.3709)" fill="white"/>
<rect x="77.8066" y="63.2971" width="10.7949" height="6.75495" rx="2" transform="rotate(3.0911 77.8066 63.2971)" fill="white"/>
<path d="M68.8001 15.1495L62.7957 12.8978L60.1687 11.772L58.2924 10.6462L57.1665 8.76978L53.0385 7.26868L50.7869 6.51813L51.5374 8.39451H49.661L41.0297 9.52033L24.8929 14.3989L10.2572 19.6528L9.18089 20.46L9.57745 21.914C9.77529 22.6394 10.1982 23.2833 10.7853 23.753C11.4151 24.2568 12.1977 24.5313 13.0042 24.5313H15.511H18.336C19.4397 24.5313 20.5282 24.7883 21.5154 25.2819C22.5026 25.7755 23.5911 26.0324 24.6948 26.0324H26.3318C26.6228 26.0324 26.9132 26.0594 27.1992 26.1131L31.6671 26.9508C32.2421 27.0586 32.7737 26.6175 32.7737 26.0324V24.5313V24.1351C32.7737 21.9278 33.2876 19.7507 34.2748 17.7764L34.8649 17.4813C35.9108 16.9583 37.142 16.9583 38.1879 17.4813L39.0689 17.9218C39.7115 18.2431 39.9271 19.055 39.5286 19.6528L38.9083 21.5136C38.6046 22.4249 38.9011 23.4289 39.6511 24.0289C40.0577 24.3542 40.5628 24.5313 41.0834 24.5313H41.1187C41.7802 24.5313 42.4122 24.2575 42.8647 23.7749L46.8818 19.49C47.4827 18.8491 48.0296 18.1596 48.5169 17.4285L49.2858 16.2753L51.5374 12.8978L53.7891 9.52033L51.1621 7.26868L56.416 8.76978L55.2902 9.52033L57.1665 9.14506L56.7541 10.0386C55.5349 12.6803 53.9251 15.1234 51.9788 17.2859L51.5374 17.7764L48.9105 20.7786L47.0308 23.4639C46.5375 24.1686 45.91 24.7691 45.1842 25.2309C43.2979 26.4313 42.1555 28.5124 42.1555 30.7484V32.0368V36.1649V38.7918C42.1555 39.5423 42.1555 39.9176 42.9061 41.794C43.3794 42.9772 43.421 45.1625 43.579 46.427L43.6265 46.8065C43.6465 46.967 43.6824 47.1251 43.7335 47.2786L44.4072 49.2995L45.3464 51.6476C45.719 52.5791 45.9544 53.5597 46.0452 54.5589L46.1536 55.751C46.2389 56.6889 46.5572 57.5908 47.0797 58.3744L47.2026 58.5588C47.5858 59.1337 48.092 59.6163 48.6845 59.9718C49.3261 60.3568 49.8657 60.8904 50.2579 61.5276L52.2996 64.8453C52.5373 65.2317 52.6632 65.6765 52.6632 66.1302C52.6632 66.416 52.7132 66.6995 52.8108 66.968L53.1877 68.0044C53.8221 69.7492 54.9975 71.2456 56.5422 72.2754L57.5418 72.9418L54.7198 73.1182C52.6046 73.2504 50.4813 73.1503 48.3879 72.8198L44.4072 72.1913L47.2827 71.5751C48.5696 71.2993 49.3544 69.9921 48.9928 68.7267C48.9382 68.5354 48.8586 68.3521 48.7563 68.1815L40.6682 54.7014C39.1935 52.2436 35.7344 51.9762 33.8995 54.1781L32.1759 55.7786C29.9061 57.8862 31.5319 60.7895 30.1467 63.5599C29.9765 63.9004 28.2699 66.5092 26.6415 69.0466C25.7053 70.5055 26.6507 72.1527 28.1577 72.2806L29.0209 72.1913C28.7201 72.2772 28.4298 72.3036 28.1577 72.2806L21.1474 73.0058C19.1476 73.2126 17.1307 73.1912 15.1357 72.9418L19.6111 71.1517C20.3498 70.8562 20.9409 70.2793 21.2544 69.548L23.0165 65.4363L25.9989 57.9804C26.5114 56.6991 26.9054 55.3736 27.1761 54.0204L27.2057 53.8722C27.6623 51.5892 28.484 49.3948 29.6391 47.3734L30.1079 46.553C30.6323 45.6351 31.048 44.6592 31.3462 43.645L31.9648 41.5417C32.4866 39.7679 32.3526 37.8655 31.5875 36.1823L31.2641 35.4707C31.0224 34.9389 30.8973 34.3615 30.8973 33.7773C30.8973 32.0565 29.8207 30.5195 28.2035 29.9315L26.7693 29.4099L24.9999 28.8791C23.6793 28.4829 22.3322 28.1814 20.9687 27.9769L17.65 27.4791C16.226 27.2655 14.788 27.1583 13.3481 27.1583H11.7583L9.24613 26.965C8.2037 26.8848 7.15758 26.9443 6.13523 27.1399L5.37858 29.4099L4.25275 69.9396L5.37858 72.1913L18.1379 73.6924L29.7715 72.1913L32.7737 73.6924L41.0297 72.1913L51.5374 73.6924L60.1687 72.9418L63.9215 72.1913H72.5528H73.6786L80.0583 72.9418H84.9369H88.3144L90.566 74.8182H0.5V34.6638L1.62583 26.0324L3.12693 20.7786L4.25275 17.7764L6.5044 14.3989L11.7583 11.3967L18.1379 9.52033L27.8951 6.14286L39.5286 2.01483L47.7847 0.513733L52.6632 2.01483L62.7957 6.14286L73.3034 11.3967L83.0605 17.7764L90.566 24.5313L84.5616 21.9044L78.5572 18.9022L72.5528 16.6506L68.8001 15.1495Z" fill="white" stroke="white"/>
<path d="M133.006 10.4982C133.006 9.85818 133.326 9.53818 133.966 9.53818H146.158C146.798 9.53818 147.118 9.85818 147.118 10.4982V73.8582C147.118 74.4982 146.798 74.8182 146.158 74.8182H133.966C133.326 74.8182 133.006 74.4982 133.006 73.8582V10.4982ZM160.687 59.8422C160.303 58.8182 159.983 57.7942 159.727 56.7702C159.535 55.6822 159.375 54.4982 159.247 53.2182C159.119 51.8742 159.023 50.3382 158.959 48.6102C158.895 46.8182 158.863 44.6742 158.863 42.1782C158.863 39.6822 158.895 37.5702 158.959 35.8422C159.023 34.0502 159.119 32.5142 159.247 31.2342C159.375 29.8902 159.535 28.7062 159.727 27.6822C159.983 26.6582 160.303 25.6022 160.687 24.5142C162.415 19.1382 165.263 15.1382 169.231 12.5142C173.263 9.82617 178.159 8.48217 183.919 8.48217C189.487 8.48217 194.191 9.76217 198.031 12.3222C201.935 14.8182 204.815 18.3702 206.671 22.9782C206.991 23.5542 206.831 23.9382 206.191 24.1302L195.727 28.8342C195.151 29.1542 194.703 28.9942 194.383 28.3542C193.487 26.2422 192.207 24.4822 190.543 23.0742C188.943 21.6662 186.767 20.9622 184.015 20.9622C181.455 20.9622 179.343 21.6022 177.679 22.8822C176.079 24.1622 174.927 25.9222 174.223 28.1622C174.031 28.7382 173.871 29.3782 173.743 30.0822C173.615 30.7222 173.487 31.5542 173.359 32.5782C173.295 33.6022 173.231 34.8822 173.167 36.4182C173.167 37.9542 173.167 39.8742 173.167 42.1782C173.167 44.4822 173.167 46.4022 173.167 47.9382C173.231 49.4742 173.295 50.7542 173.359 51.7782C173.487 52.8022 173.615 53.6662 173.743 54.3702C173.871 55.0102 174.031 55.6182 174.223 56.1942C174.927 58.4342 176.079 60.1942 177.679 61.4742C179.343 62.7542 181.455 63.3942 184.015 63.3942C186.767 63.3942 188.943 62.6902 190.543 61.2822C192.207 59.8742 193.487 58.1142 194.383 56.0022C194.703 55.3622 195.151 55.2022 195.727 55.5222L206.191 60.2262C206.831 60.4182 206.991 60.8022 206.671 61.3782C204.815 65.9862 201.935 69.5702 198.031 72.1302C194.191 74.6262 189.487 75.8742 183.919 75.8742C178.159 75.8742 173.263 74.5622 169.231 71.9382C165.263 69.2502 162.415 65.2182 160.687 59.8422ZM234.337 10.4982C234.529 9.85818 234.945 9.53818 235.585 9.53818H247.681C248.321 9.53818 248.737 9.85818 248.929 10.4982L271.009 73.8582C271.201 74.4982 270.977 74.8182 270.337 74.8182H257.857C257.217 74.8182 256.801 74.4982 256.609 73.8582L252.865 62.4342H230.017L226.369 73.8582C226.177 74.4982 225.761 74.8182 225.121 74.8182H212.545C211.905 74.8182 211.681 74.4982 211.873 73.8582L234.337 10.4982ZM249.025 50.4342L241.633 27.5862H241.345L233.953 50.4342H249.025ZM279.511 10.4982C279.511 9.85818 279.831 9.53818 280.471 9.53818H292.663C293.303 9.53818 293.623 9.85818 293.623 10.4982V34.9782C293.623 35.3622 293.815 35.5542 294.199 35.5542H315.511C315.895 35.5542 316.087 35.3622 316.087 34.9782V10.4982C316.087 9.85818 316.407 9.53818 317.047 9.53818H329.239C329.879 9.53818 330.199 9.85818 330.199 10.4982V73.8582C330.199 74.4982 329.879 74.8182 329.239 74.8182H317.047C316.407 74.8182 316.087 74.4982 316.087 73.8582V48.7062C316.087 48.3222 315.895 48.1302 315.511 48.1302H294.199C293.815 48.1302 293.623 48.3222 293.623 48.7062V73.8582C293.623 74.4982 293.303 74.8182 292.663 74.8182H280.471C279.831 74.8182 279.511 74.4982 279.511 73.8582V10.4982ZM343.658 10.4982C343.658 9.85818 343.978 9.53818 344.618 9.53818H368.906C374.666 9.53818 379.466 10.7542 383.306 13.1862C387.146 15.6182 389.866 19.2982 391.466 24.2262C391.722 25.1222 391.946 26.0822 392.138 27.1062C392.394 28.0662 392.586 29.2182 392.714 30.5622C392.906 31.9062 393.034 33.5062 393.098 35.3622C393.162 37.2182 393.194 39.4902 393.194 42.1782C393.194 44.8662 393.162 47.1382 393.098 48.9942C393.034 50.8502 392.906 52.4502 392.714 53.7942C392.586 55.1382 392.394 56.3222 392.138 57.3462C391.946 58.3062 391.722 59.2342 391.466 60.1302C389.866 65.0582 387.146 68.7382 383.306 71.1702C379.466 73.6022 374.666 74.8182 368.906 74.8182H344.618C343.978 74.8182 343.658 74.4982 343.658 73.8582V10.4982ZM357.77 61.6662C357.77 62.0502 357.962 62.2422 358.346 62.2422H365.738C369.002 62.2422 371.626 61.7302 373.61 60.7062C375.594 59.6182 377.002 57.7302 377.834 55.0422C378.026 54.5942 378.186 54.0822 378.314 53.5062C378.442 52.8662 378.538 52.0662 378.602 51.1062C378.73 50.1462 378.794 48.9622 378.794 47.5542C378.858 46.0822 378.89 44.2902 378.89 42.1782C378.89 40.0662 378.858 38.3062 378.794 36.8982C378.794 35.4902 378.73 34.3062 378.602 33.3462C378.538 32.3862 378.442 31.6182 378.314 31.0422C378.186 30.4022 378.026 29.8262 377.834 29.3142C377.002 26.6262 375.594 24.7702 373.61 23.7462C371.626 22.6582 369.002 22.1142 365.738 22.1142H358.346C357.962 22.1142 357.77 22.3062 357.77 22.6902V61.6662Z" fill="white"/>
</svg>
