<svg width="96" height="89" viewBox="0 0 96 89" fill="none" xmlns="http://www.w3.org/2000/svg">
<g clip-path="url(#clip0_290_871)">
<path d="M12.291 0.809082H83.7109C86.8308 0.811392 89.8238 2.07068 92.0322 4.31299C94.103 6.41558 95.3252 9.22157 95.4717 12.1802L95.4863 12.7739V58.0972L95.4717 58.6909C95.325 61.6493 94.1028 64.4547 92.0322 66.5571C89.8237 68.7995 86.8309 70.0587 83.7109 70.061H12.291L11.708 70.0464C8.80034 69.8979 6.04019 68.6594 3.96973 66.5571C1.76111 64.3145 0.517962 61.2719 0.515625 58.0972V12.7739C0.517897 9.59902 1.76098 6.5557 3.96973 4.31299C6.04019 2.21072 8.80036 0.972195 11.708 0.82373L12.291 0.809082ZM89.791 12.772C89.7883 11.1404 89.1492 9.57446 88.0107 8.41846C86.8719 7.26211 85.3258 6.61053 83.7119 6.60791H12.29C10.6763 6.61056 9.13097 7.26235 7.99219 8.41846C6.85369 9.57446 6.21362 11.1404 6.21094 12.772V58.0981C6.21352 59.7299 6.85361 61.2956 7.99219 62.4517C9.13099 63.6079 10.6763 64.2605 12.29 64.2632H83.7119C85.3258 64.2606 86.8719 63.608 88.0107 62.4517C89.1492 61.2956 89.7884 59.7298 89.791 58.0981V12.772Z" fill="white" stroke="#7B1B38"/>
<path d="M48.0014 58.198C47.1344 58.198 46.3028 57.8503 45.6898 57.2314C45.0767 56.6125 44.7323 55.7731 44.7323 54.8978V19.6953C44.7323 18.82 45.0767 17.9806 45.6898 17.3616C46.3028 16.7427 47.1344 16.395 48.0014 16.395C48.8684 16.395 49.6999 16.7427 50.313 17.3616C50.9261 17.9806 51.2705 18.82 51.2705 19.6953V54.8978C51.2705 55.7731 50.9261 56.6125 50.313 57.2314C49.6999 57.8503 48.8684 58.198 48.0014 58.198ZM26.2071 58.198C25.3401 58.198 24.5086 57.8503 23.8955 57.2314C23.2824 56.6125 22.938 55.7731 22.938 54.8978V41.6969C22.938 40.8216 23.2824 39.9821 23.8955 39.3632C24.5086 38.7443 25.3401 38.3966 26.2071 38.3966C27.0742 38.3966 27.9057 38.7443 28.5188 39.3632C29.1319 39.9821 29.4763 40.8216 29.4763 41.6969V54.8978C29.4763 55.7731 29.1319 56.6125 28.5188 57.2314C27.9057 57.8503 27.0742 58.198 26.2071 58.198ZM69.7956 58.198C68.9286 58.198 68.0971 57.8503 67.484 57.2314C66.8709 56.6125 66.5265 55.7731 66.5265 54.8978V32.8962C66.5265 32.0209 66.8709 31.1815 67.484 30.5626C68.0971 29.9437 68.9286 29.596 69.7956 29.596C70.6627 29.596 71.4942 29.9437 72.1073 30.5626C72.7203 31.1815 73.0648 32.0209 73.0648 32.8962V54.8978C73.0648 55.7731 72.7203 56.6125 72.1073 57.2314C71.4942 57.8503 70.6627 58.198 69.7956 58.198ZM21.8483 89.0003C21.2021 88.9997 20.5706 88.8058 20.0336 88.4432C19.4965 88.0805 19.0779 87.5653 18.8307 86.9626C18.5835 86.3599 18.5188 85.6968 18.6447 85.057C18.7706 84.4172 19.0815 83.8294 19.5381 83.3679L36.9735 65.7666C37.5932 65.1836 38.4129 64.8663 39.2598 64.8814C40.1067 64.8964 40.9148 65.2428 41.5138 65.8475C42.1127 66.4521 42.4558 67.2679 42.4708 68.1229C42.4857 68.9779 42.1713 69.8053 41.5939 70.4309L24.1585 88.0322C23.8561 88.3399 23.4961 88.584 23.0996 88.7501C22.703 88.9163 22.2777 89.0013 21.8483 89.0003ZM74.1545 89.0003C73.7251 89.0013 73.2998 88.9163 72.9032 88.7501C72.5066 88.584 72.1467 88.3399 71.8443 88.0322L54.4089 70.4309C53.8314 69.8053 53.5171 68.9779 53.532 68.1229C53.5469 67.2679 53.89 66.4521 54.489 65.8475C55.088 65.2428 55.896 64.8964 56.743 64.8814C57.5899 64.8663 58.4096 65.1836 59.0293 65.7666L76.4647 83.3679C76.9213 83.8294 77.2322 84.4172 77.3581 85.057C77.484 85.6968 77.4193 86.3599 77.1721 86.9626C76.9249 87.5653 76.5063 88.0805 75.9692 88.4432C75.4321 88.8058 74.8006 88.9997 74.1545 89.0003ZM48.0014 89.0003C47.1344 89.0003 46.3028 88.6526 45.6898 88.0337C45.0767 87.4147 44.7323 86.5753 44.7323 85.7V68.0988C44.7323 67.2235 45.0767 66.3841 45.6898 65.7651C46.3028 65.1462 47.1344 64.7985 48.0014 64.7985C48.8684 64.7985 49.6999 65.1462 50.313 65.7651C50.9261 66.3841 51.2705 67.2235 51.2705 68.0988V85.7C51.2705 86.5753 50.9261 87.4147 50.313 88.0337C49.6999 88.6526 48.8684 89.0003 48.0014 89.0003Z" fill="white"/>
</g>
<defs>
<clipPath id="clip0_290_871">
<rect width="96" height="89" fill="white"/>
</clipPath>
</defs>
</svg>
